<svg width="656" height="504" viewBox="0 0 656 504" fill="none" xmlns="http://www.w3.org/2000/svg">
<path d="M77.376 445V433.16H74.16V434.232H76.192V445H77.376ZM92.4169 436.168C92.4169 434.344 90.9769 432.952 89.1369 432.952C87.3129 432.952 85.8089 434.264 85.8089 436.136C85.8089 438.296 87.4249 438.856 89.1209 439.336C90.6729 439.784 91.5209 440.504 91.5209 441.784C91.5209 443.08 90.4809 444.136 89.1369 444.136C87.7129 444.136 86.7529 443.208 86.6729 441.688H85.4889C85.5209 443.8 87.0409 445.208 89.1369 445.208C91.1209 445.208 92.7049 443.672 92.7049 441.736C92.7049 440.136 91.8409 438.808 89.2809 438.152C87.6009 437.72 86.9929 437.096 86.9929 436.088C86.9929 434.936 87.9209 434.024 89.1369 434.024C90.2409 434.024 91.2329 434.952 91.2329 436.168H92.4169ZM97.0256 445V434.232H99.7296V433.16H93.1216V434.232H95.8416V445H97.0256ZM107.358 445V443.928H102.062V439.56H107.182V438.488H102.062V434.232H107.358V433.16H100.878V445H107.358ZM110.64 445V440.232H113.024C116.256 440.232 117.28 438.312 117.28 436.728C117.28 435.096 116.304 433.16 113.04 433.16H109.456V445H110.64ZM110.64 439.16V434.232H113.024C115.344 434.232 116.096 435.512 116.096 436.696C116.096 438.168 114.928 439.16 113.28 439.16H110.64Z" fill="#060602"/>
<path d="M64 445L64 402" stroke="#679B21" stroke-dasharray="4 4"/>
<path d="M323.16 445V443.928H317.24L321.048 440.296C322.2 439.192 323.224 438.168 323.224 436.568C323.224 434.792 321.784 432.952 319.544 432.952C317.656 432.952 315.736 434.152 315.736 436.984H316.92C316.968 435.112 317.944 434.024 319.48 434.024C320.872 434.024 322.04 435.176 322.04 436.536C322.04 437.512 321.4 438.392 320.584 439.176L315.64 443.928V445H323.16ZM335.417 436.168C335.417 434.344 333.977 432.952 332.137 432.952C330.313 432.952 328.809 434.264 328.809 436.136C328.809 438.296 330.425 438.856 332.121 439.336C333.673 439.784 334.521 440.504 334.521 441.784C334.521 443.08 333.481 444.136 332.137 444.136C330.713 444.136 329.753 443.208 329.673 441.688H328.489C328.521 443.8 330.041 445.208 332.137 445.208C334.121 445.208 335.705 443.672 335.705 441.736C335.705 440.136 334.841 438.808 332.281 438.152C330.601 437.72 329.993 437.096 329.993 436.088C329.993 434.936 330.921 434.024 332.137 434.024C333.241 434.024 334.233 434.952 334.233 436.168H335.417ZM340.026 445V434.232H342.73V433.16H336.122V434.232H338.842V445H340.026ZM350.358 445V443.928H345.062V439.56H350.182V438.488H345.062V434.232H350.358V433.16H343.878V445H350.358ZM353.64 445V440.232H356.024C359.256 440.232 360.28 438.312 360.28 436.728C360.28 435.096 359.304 433.16 356.04 433.16H352.456V445H353.64ZM353.64 439.16V434.232H356.024C358.344 434.232 359.096 435.512 359.096 436.696C359.096 438.168 357.928 439.16 356.28 439.16H353.64Z" fill="#060602"/>
<path d="M307 445L307 327" stroke="#679B21" stroke-dasharray="4 4"/>
<path d="M555.984 438.776C557.76 438.776 558.912 440.008 558.912 441.416C558.912 442.968 557.888 444.136 556.368 444.136C555.024 444.136 553.808 443.176 553.728 441.288H552.544C552.608 443.944 554.544 445.208 556.384 445.208C558.56 445.208 560.096 443.432 560.096 441.352C560.096 440.056 559.328 438.872 558.096 438.216C558.944 437.56 559.312 436.888 559.312 435.992C559.312 434.296 558.048 432.952 556.32 432.952C554.64 432.952 553.392 434.232 553.328 436.12H554.512C554.528 434.856 555.264 434.024 556.288 434.024C557.36 434.024 558.128 434.808 558.128 435.896C558.128 437.048 557.2 437.752 555.984 437.752C555.936 437.752 555.872 437.752 555.52 437.736V438.776H555.984ZM572.417 436.168C572.417 434.344 570.977 432.952 569.137 432.952C567.313 432.952 565.809 434.264 565.809 436.136C565.809 438.296 567.425 438.856 569.121 439.336C570.673 439.784 571.521 440.504 571.521 441.784C571.521 443.08 570.481 444.136 569.137 444.136C567.713 444.136 566.753 443.208 566.673 441.688H565.489C565.521 443.8 567.041 445.208 569.137 445.208C571.121 445.208 572.705 443.672 572.705 441.736C572.705 440.136 571.841 438.808 569.281 438.152C567.601 437.72 566.993 437.096 566.993 436.088C566.993 434.936 567.921 434.024 569.137 434.024C570.241 434.024 571.233 434.952 571.233 436.168H572.417ZM577.026 445V434.232H579.73V433.16H573.122V434.232H575.842V445H577.026ZM587.358 445V443.928H582.062V439.56H587.182V438.488H582.062V434.232H587.358V433.16H580.878V445H587.358ZM590.64 445V440.232H593.024C596.256 440.232 597.28 438.312 597.28 436.728C597.28 435.096 596.304 433.16 593.04 433.16H589.456V445H590.64ZM590.64 439.16V434.232H593.024C595.344 434.232 596.096 435.512 596.096 436.696C596.096 438.168 594.928 439.16 593.28 439.16H590.64Z" fill="#060602"/>
<path d="M544 445L544 152" stroke="#679B21" stroke-dasharray="4 4"/>
<path d="M352.99 301.083L353.961 302.832L352.99 301.083ZM56 396C56.0005 398 56.0017 398 56.0034 398C56.0046 398 56.0068 398 56.0092 398C56.0141 398 56.0208 398 56.0295 398C56.0468 398 56.0718 398 56.1045 398C56.1697 397.999 56.2655 397.998 56.3915 397.997C56.6435 397.994 57.0163 397.988 57.5074 397.976C58.4898 397.952 59.9455 397.905 61.8546 397.811C65.6728 397.623 71.3049 397.248 78.5914 396.502C93.1641 395.009 114.355 392.027 140.887 386.074C193.952 374.168 268.382 350.376 353.961 302.832L352.018 299.335C266.809 346.674 192.744 370.34 140.011 382.171C113.645 388.087 92.6107 391.044 78.1837 392.523C70.9702 393.262 65.4085 393.631 61.658 393.816C59.7827 393.908 58.3603 393.954 57.4105 393.977C56.9357 393.989 56.579 393.994 56.343 393.997C56.225 393.999 56.1371 393.999 56.0798 394C56.0511 394 56.0301 394 56.0167 394C56.01 394 56.0052 394 56.0023 394C56.0009 394 56.0002 394 55.9994 394C55.9992 394 55.9995 394 56 396ZM353.961 302.832C455.145 246.618 514.342 192.7 548.267 152.754C565.228 132.783 575.867 116.31 582.276 104.799C585.48 99.0436 587.627 94.5296 588.977 91.4399C589.651 89.895 590.127 88.7064 590.437 87.8967C590.592 87.4919 590.705 87.1819 590.78 86.9694C590.818 86.8632 590.847 86.7814 590.866 86.7244C590.876 86.6959 590.884 86.6736 590.889 86.6575C590.892 86.6494 590.894 86.6429 590.896 86.638C590.896 86.6356 590.897 86.633 590.898 86.6318C590.898 86.6297 590.899 86.628 589 86C587.101 85.372 587.101 85.3711 587.102 85.3705C587.102 85.3709 587.102 85.3707 587.101 85.3714C587.101 85.3727 587.1 85.3756 587.098 85.3801C587.095 85.389 587.09 85.4042 587.083 85.4256C587.068 85.4683 587.045 85.5357 587.012 85.6276C586.947 85.8113 586.844 86.0925 586.701 86.4685C586.413 87.2205 585.961 88.3513 585.311 89.8384C584.012 92.8124 581.922 97.2114 578.781 102.853C572.5 114.136 562.01 130.393 545.218 150.165C511.636 189.706 452.827 243.33 352.018 299.335L353.961 302.832Z" fill="#060602"/>
<circle cx="307" cy="327" r="10" fill="#060602" stroke="#BFFF39" stroke-width="4"/>
<circle cx="544" cy="152" r="10" fill="#060602" stroke="#BFFF39" stroke-width="4"/>
<path d="M595.648 100.952L589.953 86L575.001 91.695" stroke="#060602" stroke-width="4"/>
<circle cx="64" cy="396" r="10" fill="#060602" stroke="#BFFF39" stroke-width="4"/>
</svg>
