<svg width="74" height="24" viewBox="0 0 74 24" fill="none" xmlns="http://www.w3.org/2000/svg">
<path d="M9.31743 0C10.791 0 12.1172 0.0793458 13.296 0.238038C14.4749 0.396728 15.6764 0.73678 16.9006 1.25819C18.1474 1.75694 19.1789 2.43704 19.9951 3.29851C20.8112 4.1373 21.48 5.29348 22.0014 6.76704C22.5455 8.2406 22.8175 9.97486 22.8175 11.9698C22.8175 13.9648 22.5455 15.6991 22.0014 17.1726C21.48 18.6462 20.8112 19.8137 19.9951 20.6752C19.1789 21.514 18.1474 22.1941 16.9006 22.7155C15.6764 23.2369 14.4749 23.577 13.296 23.7356C12.1172 23.8943 10.791 23.9737 9.31743 23.9737H0V0H9.31743ZM9.31743 18.2608C10.3603 18.2608 11.1537 18.2381 11.6978 18.1928C12.2645 18.1474 12.888 18.0228 13.5681 17.8187C14.2482 17.592 14.7469 17.2633 15.0643 16.8326C15.4044 16.4018 15.6877 15.7898 15.9144 14.9963C16.1638 14.1802 16.2885 13.1714 16.2885 11.9698C16.2885 10.9723 16.2205 10.1222 16.0845 9.41945C15.9484 8.694 15.7217 8.10458 15.4044 7.65117C15.087 7.19777 14.7583 6.83505 14.4182 6.56301C14.1008 6.29096 13.6248 6.09827 12.99 5.98492C12.3552 5.87157 11.7998 5.80356 11.3237 5.78089C10.8477 5.73555 10.1789 5.71288 9.31743 5.71288H6.495V18.2608H9.31743Z" fill="black"/>
<path d="M73.4069 0V5.71288H65.7557V23.9737H59.2607V5.71288H51.6096V0H73.4069Z" fill="black"/>
<path fill-rule="evenodd" clip-rule="evenodd" d="M43.5068 16.9872L45.3451 24H51.9494L45.3451 0H31.8983L25.3281 24H31.9324L33.7707 16.9872H33.7902L35.2729 11.2681H35.2685L37.8217 1.6H39.4217L41.9749 11.2681H41.9533L43.4825 16.9872H43.5068Z" fill="black"/>
<path d="M41.6472 16.4994C41.6472 18.1849 40.2808 19.5514 38.5952 19.5514C36.9096 19.5514 35.5432 18.1849 35.5432 16.4994C35.5432 14.8138 36.9096 13.4474 38.5952 13.4474C40.2808 13.4474 41.6472 14.8138 41.6472 16.4994Z" fill="black"/>
</svg>
