<svg width="226" height="154" viewBox="0 0 226 154" fill="none" xmlns="http://www.w3.org/2000/svg">
<rect x="0.5" y="0.5" width="225" height="153" stroke="#060602" stroke-opacity="0.4"/>
<path d="M33.6172 30.1598C33.6172 30.3698 34.0022 30.4398 34.1772 30.4748C35.1922 30.5798 35.5772 30.9648 35.6122 31.6298C35.7172 32.4348 35.8572 36.4248 35.8572 39.8198C35.8572 45.2798 35.8222 49.1998 35.7522 50.0048C35.6822 51.1598 35.2972 51.4048 34.2472 51.6148C33.7922 51.6848 33.6522 51.7898 33.6522 51.9298C33.6522 52.0698 34.0022 52.1398 34.2472 52.1398C34.6672 52.1398 35.7522 51.9998 36.8022 51.9998C38.4472 51.9998 39.4622 52.1748 40.3372 52.1748C40.6872 52.1748 40.9322 52.1048 40.9322 51.9298C40.9322 51.7548 40.7572 51.6848 40.2322 51.5798C39.1822 51.4398 38.7272 51.0898 38.6572 49.7248C38.5872 48.7448 38.4822 46.4698 38.4822 42.7248C38.4822 38.9798 38.4822 31.5948 38.4822 30.9648C38.4822 30.6498 38.6222 30.4048 38.7622 30.3698C39.0072 30.2648 39.7422 30.1598 40.3022 30.1598C41.8772 30.1598 43.0672 30.7198 44.1522 32.0148C45.4472 33.4148 45.7972 35.3748 45.7972 36.6348C45.7972 41.5698 42.5772 42.5498 41.4222 42.5498C41.1422 42.5498 41.0372 42.5498 40.7572 42.5148C40.4772 42.4798 40.3722 42.5848 40.3722 42.6548C40.3722 42.7948 40.5822 42.8998 40.7922 42.9698C41.0022 43.0398 41.4572 43.1098 41.8772 43.1098C42.7522 43.1098 44.4322 42.8998 45.6922 41.9898C46.9872 41.1498 48.5622 39.5748 48.5622 36.3898C48.5622 34.9198 48.0722 33.1698 46.7772 31.8398C45.4122 30.3348 43.1372 29.5998 40.4072 29.5998C39.5322 29.5998 37.6422 29.8098 36.7322 29.8448C35.7872 29.8798 34.8422 29.9148 34.2122 29.9148C33.8972 29.9148 33.6172 30.0548 33.6172 30.1598Z" fill="#060602"/>
<path d="M60.0323 29.8448C58.2123 29.8448 57.2673 30.0198 55.7973 30.0198C54.5723 30.0198 53.5573 29.9148 53.0673 29.9148C52.6473 29.9148 52.4373 29.9848 52.4373 30.1248C52.4373 30.2998 52.7173 30.3698 53.0323 30.4398C54.5023 30.6848 54.5373 31.2098 54.6073 32.1898C54.6773 33.3798 54.8173 35.5848 54.8173 40.4498C54.8173 44.8248 54.7473 47.6248 54.6423 49.6198C54.5373 51.0548 54.1873 51.3698 53.0323 51.6148C52.5773 51.6848 52.3673 51.7898 52.3673 51.9298C52.3673 52.1048 52.6123 52.1748 52.9623 52.1748C53.6273 52.1748 54.8873 51.9998 56.1473 51.9998C57.4423 51.9998 58.4923 52.1748 59.1223 52.1748C59.5073 52.1748 59.7873 52.0698 59.7873 51.9298C59.7873 51.7898 59.6473 51.6848 59.2623 51.6148C58.0373 51.4048 57.7573 51.0198 57.6523 50.5998C57.5123 50.2848 57.3723 49.1298 57.3723 47.2748C57.3373 45.9448 57.3373 41.8848 57.4073 41.4648C57.4423 41.2898 57.5823 41.1498 57.7223 41.1148C58.4573 41.0798 58.8773 41.1498 59.1923 41.2198C59.6473 41.2898 59.9973 41.6048 60.4523 42.1998C61.1523 43.2848 63.7073 47.5548 65.2473 49.5848C66.6473 51.4048 68.1873 52.3848 70.3923 52.3848C71.0223 52.3848 71.6523 52.3498 71.9673 52.2098C72.2123 52.1398 72.3523 51.9998 72.3523 51.9298C72.3523 51.8248 72.1423 51.7198 71.8973 51.7198C71.2323 51.6848 70.3223 51.4398 69.2723 50.3548C68.5373 49.6198 67.8023 48.7098 66.7173 47.1698C65.5973 45.5248 63.6023 42.2698 62.9373 40.9398C62.7973 40.5898 62.7623 40.3798 62.9023 40.3098C63.4273 40.0998 64.3723 39.7148 64.8973 39.2248C65.7023 38.6298 66.8923 37.5798 66.8923 35.3048C66.8923 33.6948 66.2273 32.1898 64.7223 31.1048C63.5673 30.2648 62.1673 29.8448 60.0323 29.8448ZM58.7373 30.4398C60.4873 30.4398 61.7123 30.8598 62.7273 31.8398C63.6373 32.7498 64.1273 34.0798 64.1273 35.8648C64.1273 37.7548 63.1473 39.1198 62.1673 39.8198C61.3973 40.3098 59.3673 40.5548 58.4573 40.5898C58.2123 40.5898 57.7923 40.5898 57.6173 40.5198C57.4773 40.5198 57.3373 40.3798 57.3373 39.9248C57.3373 39.3298 57.3723 32.0148 57.4073 31.3498C57.4423 30.7548 57.5473 30.7198 57.6173 30.6848C57.7923 30.5448 58.2823 30.4398 58.7373 30.4398Z" fill="#060602"/>
<path d="M84.6598 29.4248C82.3848 29.4248 79.6548 30.2298 77.8698 31.6298C74.5098 34.1848 73.3198 37.2998 73.3198 40.7998C73.3198 47.2048 78.4998 52.6298 84.8348 52.6298C86.4448 52.6298 88.0548 52.2098 89.4898 51.5798C92.1848 50.3898 95.9998 46.9248 95.9998 41.2898C95.9998 34.7448 90.7498 29.4248 84.6598 29.4248ZM84.0648 29.9498C86.8648 29.9498 88.7548 31.3148 90.0148 32.8198C91.9748 35.2348 92.9898 38.2448 92.9898 41.2898C92.9898 46.2248 90.8198 49.2698 89.1748 50.5648C88.0198 51.5798 86.6898 51.9648 85.4298 51.9648C83.4698 51.9648 81.0898 51.1598 79.0248 48.4298C77.3798 46.3648 76.3298 43.3548 76.3298 40.6598C76.3298 37.8248 77.0648 34.6748 78.8148 32.5748C79.8998 31.3148 82.0698 29.9498 84.0648 29.9498Z" fill="#060602"/>
<path d="M100.307 30.2298C100.307 30.3698 100.482 30.4748 100.797 30.5098C102.127 30.7898 102.302 31.1398 102.372 32.3648C102.477 33.4148 102.547 36.4598 102.547 42.7248C102.547 45.5948 102.512 48.8848 102.407 49.7248C102.337 51.0898 102.022 51.4048 100.762 51.6148C100.342 51.6498 100.167 51.7548 100.167 51.8598C100.167 52.0348 100.447 52.1398 100.832 52.1398C101.217 52.1398 102.302 52.0698 103.247 52.0698C104.297 52.0698 105.277 52.1748 106.327 52.2448C107.307 52.3148 108.182 52.3848 108.952 52.3848C109.897 52.3848 111.262 52.3148 112.172 52.1048C116.582 51.0198 121.377 47.8348 121.377 40.8348C121.377 36.2498 118.962 33.2748 116.162 31.5248C113.747 30.0548 111.227 29.6348 108.462 29.6348C107.692 29.6348 106.292 29.7748 105.347 29.8798C103.912 30.0198 102.372 30.0198 100.902 30.0198C100.517 30.0198 100.307 30.0898 100.307 30.2298ZM107.902 30.2298C111.087 30.2298 113.187 31.3148 115.112 33.0998C117.317 35.1298 118.332 38.1748 118.332 41.3948C118.332 47.1698 115.392 49.8298 113.257 50.9848C112.242 51.5448 110.982 51.8248 109.407 51.8248C108.112 51.8248 107.062 51.4398 106.572 51.0548C105.697 50.3898 105.487 49.6198 105.347 47.7998C105.242 46.0848 105.137 43.9148 105.137 40.2748C105.137 33.7998 105.172 32.7148 105.242 31.5248C105.242 30.8598 105.487 30.6148 105.627 30.5798C105.977 30.4398 106.992 30.2298 107.902 30.2298Z" fill="#060602"/>
<path d="M125.511 30.0548C125.511 30.2298 125.756 30.3348 125.931 30.4048C127.366 30.7898 127.436 30.9998 127.576 32.7498C127.681 34.8148 127.646 40.3098 127.716 42.9698C127.856 47.2398 128.626 49.3048 130.761 50.9848C132.161 52.0698 134.366 52.5598 136.221 52.5598C137.901 52.5598 140.561 52.2448 142.381 50.3198C144.376 48.1848 144.726 45.1748 144.936 42.0248C145.111 39.8198 145.111 35.1648 145.251 33.0298C145.356 31.4548 145.426 30.7548 146.826 30.5098C147.386 30.4048 147.561 30.2998 147.561 30.1248C147.561 30.0198 147.316 29.9498 146.931 29.9498C146.091 29.9498 145.181 30.0548 144.411 30.0548C143.326 30.0548 142.731 29.9498 141.996 29.9498C141.611 29.9498 141.436 30.0198 141.436 30.1948C141.436 30.2998 141.681 30.4748 141.961 30.5098C142.206 30.5448 142.556 30.6148 142.871 30.7198C143.851 31.0698 144.131 31.5248 144.131 38.1748C144.131 39.3298 144.096 40.9748 144.026 42.2698C143.781 49.1648 141.191 51.1948 137.236 51.1948C135.591 51.1948 133.631 50.6698 132.301 49.2698C131.111 48.0448 130.446 45.9798 130.411 43.4248C130.341 41.6748 130.341 36.9498 130.411 33.6248C130.411 31.9798 130.341 30.7898 132.126 30.5098C132.406 30.4398 132.686 30.3348 132.686 30.1598C132.686 30.0548 132.511 29.9498 132.126 29.9498C131.321 29.9498 130.306 30.0548 129.256 30.0548C127.996 30.0548 126.981 29.9148 126.141 29.9148C125.826 29.9148 125.511 29.9148 125.511 30.0548Z" fill="#060602"/>
<path d="M163.125 29.4248C159.905 29.4248 156.825 30.6498 154.97 32.3298C152.73 34.3598 151.05 36.9848 151.05 41.1848C151.05 44.1948 152.52 47.4148 153.99 48.9198C156.16 51.0898 158.89 52.6298 163.09 52.6298C165.925 52.6298 167.815 51.8948 169.915 50.7048C170.09 50.5998 170.195 50.3898 170.265 50.1798C170.335 49.7948 170.755 48.0098 170.755 47.4148C170.755 47.2048 170.685 46.8898 170.545 46.8898C170.405 46.8898 170.335 47.0298 170.195 47.4848C169.67 48.9198 168.83 50.1448 167.5 50.9148C166.555 51.5098 165.33 51.8948 163.335 51.8948C161.48 51.8948 159.065 51.1598 157.35 49.3048C155.53 47.3448 154.13 43.9848 154.13 40.8348C154.13 37.4748 155.285 34.3598 156.79 32.7148C158.225 31.2448 160.255 29.9848 162.88 29.9848C164.91 29.9848 166.94 30.5448 168.235 31.7348C168.865 32.2248 169.635 33.3448 169.915 34.5348C169.985 34.8148 170.09 34.9898 170.23 34.9898C170.3 34.9898 170.44 34.7798 170.44 34.4298C170.44 34.0798 170.265 32.5748 170.335 31.7348C170.37 31.5598 170.265 31.3148 169.985 31.1398C168.83 30.5098 165.96 29.4248 163.125 29.4248Z" fill="#060602"/>
<path d="M179.225 51.8948C179.225 52.0698 179.4 52.2098 179.855 52.2098C180.415 52.2098 181.465 51.9998 183.25 51.9998C184.65 51.9998 185.735 52.2098 186.54 52.2098C186.995 52.2098 187.24 52.1748 187.24 51.9648C187.24 51.7898 187.065 51.7198 186.645 51.6148C185.455 51.2648 185.105 51.0198 184.965 49.8298C184.86 48.7448 184.755 44.4048 184.755 42.4448C184.755 40.9748 184.825 32.8198 184.825 31.5248C184.825 31.2798 184.86 30.9998 185.035 30.9648C185.595 30.8948 187.345 30.8948 188.43 30.8948C190.88 30.8948 191.335 31.0348 191.65 31.3148C191.93 31.5948 192.21 32.3298 192.315 32.9598C192.35 33.1348 192.42 33.4498 192.56 33.4498C192.7 33.4498 192.84 33.2048 192.84 32.6798C192.84 31.4898 192.84 30.4398 192.945 30.0198C192.98 29.7398 192.945 29.6698 192.91 29.5648C192.875 29.4948 192.77 29.5298 192.63 29.6348C192.07 29.9148 191.51 29.9498 190.705 29.9848C189.725 30.0548 186.435 30.0548 183.74 30.0548C180.135 30.0548 176.67 30.0198 176.11 29.9848C175.62 29.9498 175.13 29.8098 174.99 29.6348C174.885 29.4948 174.78 29.4248 174.71 29.4598C174.535 29.5298 174.535 29.7048 174.5 30.0198C174.5 30.9298 174.22 31.9448 174.045 32.9948C174.01 33.2398 174.01 33.5198 174.15 33.5198C174.29 33.5198 174.465 33.3448 174.64 32.9248C175.13 31.5598 175.585 31.1398 176.25 31.0348C176.95 30.9298 177.79 30.8598 179.225 30.8598C180.835 30.8598 181.64 30.9298 181.85 30.9648C181.955 30.9648 182.06 31.0698 182.095 31.3848C182.165 31.8748 182.165 45.7698 181.92 49.1648C181.815 50.7748 181.605 51.3348 179.925 51.5798C179.54 51.6498 179.225 51.7548 179.225 51.8948Z" fill="#060602"/>
<path d="M63.8977 66.4248C61.6227 66.4248 58.8927 67.2298 57.1077 68.6298C53.7477 71.1848 52.5577 74.2998 52.5577 77.7998C52.5577 84.2048 57.7377 89.6298 64.0727 89.6298C65.6827 89.6298 67.2927 89.2098 68.7277 88.5798C71.4227 87.3898 75.2377 83.9248 75.2377 78.2898C75.2377 71.7448 69.9877 66.4248 63.8977 66.4248ZM63.3027 66.9498C66.1027 66.9498 67.9927 68.3148 69.2527 69.8198C71.2127 72.2348 72.2277 75.2448 72.2277 78.2898C72.2277 83.2248 70.0577 86.2698 68.4127 87.5648C67.2577 88.5798 65.9277 88.9648 64.6677 88.9648C62.7077 88.9648 60.3277 88.1598 58.2627 85.4298C56.6177 83.3648 55.5677 80.3548 55.5677 77.6598C55.5677 74.8248 56.3027 71.6748 58.0527 69.5748C59.1377 68.3148 61.3077 66.9498 63.3027 66.9498Z" fill="#060602"/>
<path d="M79.6501 67.1248C79.6501 67.2998 79.8951 67.4048 80.2101 67.4748C81.4701 67.7898 81.5751 68.1048 81.6451 69.3648C81.7501 71.4998 81.7501 73.6348 81.7501 77.3448C81.7501 81.1948 81.7501 85.5348 81.6451 86.6898C81.5751 87.9848 81.4001 88.2648 80.0701 88.5448C79.6151 88.6498 79.4401 88.7548 79.4401 88.8948C79.4401 89.0698 79.6851 89.1398 80.0001 89.1398C80.4901 89.1398 81.3651 88.9998 82.6951 88.9998C84.1301 88.9998 85.6351 89.2098 86.1251 89.2098C86.4751 89.2098 86.8601 89.1748 86.8601 88.9648C86.8601 88.8248 86.6501 88.7198 86.3701 88.6498C84.7601 88.2648 84.5501 88.0548 84.5151 86.7248C84.4451 85.1498 84.3751 79.6898 84.4101 79.0598C84.4101 78.8848 84.6901 78.6048 84.7601 78.6048C89.6951 78.6048 90.2551 78.6748 90.8151 78.7798C91.2351 78.8848 91.5851 79.2348 91.8651 80.0048C92.0751 80.4948 92.2151 80.7748 92.3551 80.7748C92.5301 80.7748 92.6001 80.6348 92.6001 80.1798C92.5651 79.7248 92.4601 79.2348 92.4601 78.4998C92.4601 77.7648 92.6001 76.7148 92.6351 76.3298C92.6701 75.9798 92.6001 75.8048 92.4601 75.8048C92.3551 75.8048 92.2501 75.9448 92.0751 76.2948C91.5501 77.4848 91.0601 77.5898 90.5701 77.6598C90.0101 77.7298 88.3301 77.7648 84.7601 77.7648C84.6901 77.7648 84.4451 77.6248 84.4451 77.3448C84.3751 73.3198 84.4451 69.2948 84.4801 68.3148C84.4801 68.1398 84.7251 67.6848 84.9701 67.6848C88.1551 67.6848 89.6601 67.6848 90.7801 67.7898C92.0401 67.8948 92.8101 68.4198 93.4051 69.7848C93.5801 70.2398 93.6851 70.4848 93.8251 70.4848C94.0001 70.4848 94.0701 70.1698 94.0001 69.8198C93.9651 69.3998 93.8251 67.8598 93.7901 67.3698C93.7551 67.1248 93.5101 66.9498 92.7751 66.9498C91.4451 66.9498 87.7701 67.0548 84.0601 67.0548C82.5201 67.0548 80.5951 66.9148 80.1751 66.9148C79.8601 66.9148 79.6501 66.9848 79.6501 67.1248Z" fill="#060602"/>
<path d="M113.927 88.8948C113.927 89.0698 114.102 89.2098 114.557 89.2098C115.117 89.2098 116.167 88.9998 117.952 88.9998C119.352 88.9998 120.437 89.2098 121.242 89.2098C121.697 89.2098 121.942 89.1748 121.942 88.9648C121.942 88.7898 121.767 88.7198 121.347 88.6148C120.157 88.2648 119.807 88.0198 119.667 86.8298C119.562 85.7448 119.457 81.4048 119.457 79.4448C119.457 77.9748 119.527 69.8198 119.527 68.5248C119.527 68.2798 119.562 67.9998 119.737 67.9648C120.297 67.8948 122.047 67.8948 123.132 67.8948C125.582 67.8948 126.037 68.0348 126.352 68.3148C126.632 68.5948 126.912 69.3298 127.017 69.9598C127.052 70.1348 127.122 70.4498 127.262 70.4498C127.402 70.4498 127.542 70.2048 127.542 69.6798C127.542 68.4898 127.542 67.4398 127.647 67.0198C127.682 66.7398 127.647 66.6698 127.612 66.5648C127.577 66.4948 127.472 66.5298 127.332 66.6348C126.772 66.9148 126.212 66.9498 125.407 66.9848C124.427 67.0548 121.137 67.0548 118.442 67.0548C114.837 67.0548 111.372 67.0198 110.812 66.9848C110.322 66.9498 109.832 66.8098 109.692 66.6348C109.587 66.4948 109.482 66.4248 109.412 66.4598C109.237 66.5298 109.237 66.7048 109.202 67.0198C109.202 67.9298 108.922 68.9448 108.747 69.9948C108.712 70.2398 108.712 70.5198 108.852 70.5198C108.992 70.5198 109.167 70.3448 109.342 69.9248C109.832 68.5598 110.287 68.1398 110.952 68.0348C111.652 67.9298 112.492 67.8598 113.927 67.8598C115.537 67.8598 116.342 67.9298 116.552 67.9648C116.657 67.9648 116.762 68.0698 116.797 68.3848C116.867 68.8748 116.867 82.7698 116.622 86.1648C116.517 87.7748 116.307 88.3348 114.627 88.5798C114.242 88.6498 113.927 88.7548 113.927 88.8948Z" fill="#060602"/>
<path d="M133.392 77.8698C133.392 83.3648 133.322 85.8498 133.252 86.8998C133.182 87.9148 132.937 88.3348 131.712 88.5798C131.362 88.6498 131.117 88.7548 131.117 88.9298C131.117 89.0348 131.362 89.1398 131.712 89.1398C132.342 89.1398 133.637 88.9998 134.547 88.9998C135.597 88.9998 136.857 89.1748 137.662 89.1748C138.012 89.1748 138.292 89.1048 138.292 88.9648C138.292 88.8248 138.187 88.6848 137.697 88.5798C136.962 88.4048 136.472 88.0898 136.367 87.3548C136.192 86.6548 136.017 82.6648 136.017 79.1998C136.017 78.6048 136.157 78.3948 136.262 78.3948C136.682 78.3948 138.537 78.3948 140.182 78.4298C143.612 78.4298 147.847 78.4648 149.037 78.5348C149.282 78.5348 149.282 78.8848 149.317 79.3748C149.387 80.7398 149.317 85.0448 149.282 86.5498C149.212 87.9848 148.967 88.2998 147.742 88.5448C147.322 88.6148 147.147 88.7198 147.147 88.8248C147.147 89.0348 147.427 89.1048 147.847 89.1048C148.582 89.1048 149.667 88.9998 150.612 88.9998C151.452 88.9998 153.062 89.1048 153.867 89.1048C154.217 89.1048 154.427 89.0348 154.427 88.8948C154.427 88.7548 154.287 88.6848 153.902 88.5798C152.432 88.2648 152.257 87.8448 152.187 86.0948C152.117 83.1198 152.082 81.0198 152.012 78.6398C151.977 76.2598 151.942 71.2548 151.977 69.9598C152.012 68.2798 152.082 67.7198 153.552 67.4048C153.902 67.2998 154.042 67.1948 154.042 67.0898C154.042 66.9148 153.832 66.8798 153.482 66.8798C152.747 66.8798 151.767 67.0548 150.682 67.0548C149.317 67.0548 148.337 66.8798 147.462 66.8798C147.112 66.8798 146.972 66.9848 146.972 67.0898C146.972 67.2298 147.217 67.3698 147.497 67.4048C148.897 67.5798 149.002 68.1398 149.107 70.3798C149.177 71.6398 149.282 75.6298 149.247 76.7148C149.212 77.2398 149.177 77.3098 148.897 77.3448C148.722 77.3448 148.302 77.4498 145.327 77.4498C142.037 77.4498 137.277 77.4848 136.332 77.4148C136.122 77.3798 136.052 77.0998 136.052 76.7498C136.017 76.0848 136.087 70.2748 136.157 69.3998C136.262 68.2098 136.437 67.6848 137.662 67.4048C137.942 67.3698 138.117 67.2298 138.117 67.1248C138.117 66.9848 137.977 66.9148 137.557 66.9148C137.067 66.9148 135.702 67.0548 134.617 67.0548C133.567 67.0548 132.342 66.8798 131.782 66.8798C131.397 66.8798 131.187 66.9148 131.187 67.0898C131.187 67.1948 131.362 67.3348 131.747 67.4048C133.217 67.7898 133.182 68.1748 133.287 70.1698C133.357 71.4648 133.392 76.0848 133.392 77.8698Z" fill="#060602"/>
<path d="M158.522 67.1248C158.522 67.2648 158.697 67.3698 159.047 67.4398C160.307 67.7198 160.727 68.1398 160.727 70.1348C160.727 76.9948 160.727 80.8448 160.552 86.4098C160.517 87.9848 159.817 88.4398 158.627 88.6148C158.242 88.7198 157.997 88.7898 157.997 88.9298C157.997 89.0698 158.207 89.1748 158.662 89.1748C159.047 89.1748 161.007 88.9998 162.197 88.9998C165.032 88.9998 168.987 89.1398 172.697 89.1398C172.942 89.1398 173.117 88.9648 173.257 88.7198C173.432 88.3348 173.817 86.8648 174.027 86.0598C174.167 85.6748 174.132 85.4298 173.992 85.4298C173.852 85.4298 173.712 85.5698 173.362 86.0248C173.012 86.5148 172.452 87.3548 172.102 87.7048C171.402 88.3348 170.772 88.4048 167.832 88.4048C165.487 88.4048 164.927 88.2998 164.367 88.0548C163.737 87.7748 163.457 86.8648 163.457 86.4798C163.457 85.8148 163.352 80.9148 163.352 79.1298C163.352 78.5348 163.387 78.4648 163.632 78.4648C168.357 78.4648 169.302 78.4998 170.107 78.6748C170.632 78.8148 170.877 79.4798 170.982 79.7948C171.227 80.3548 171.262 80.5298 171.402 80.5298C171.472 80.5298 171.717 80.3198 171.612 79.8298C171.577 79.5848 171.472 78.4998 171.542 77.8698C171.612 77.3098 171.752 76.2248 171.752 76.0148C171.752 75.8048 171.682 75.6298 171.577 75.6298C171.437 75.6298 171.332 75.7698 171.227 76.0148C170.877 76.7848 170.562 77.2048 170.317 77.3448C170.002 77.5198 169.582 77.5898 167.972 77.5898H163.562C163.457 77.5898 163.352 77.4498 163.352 77.0298C163.352 74.6148 163.352 70.1698 163.352 69.0148C163.352 67.7548 163.492 67.6848 163.772 67.6498C164.892 67.6148 169.512 67.6148 170.317 67.7548C170.947 67.8948 171.612 68.4198 172.207 69.8898C172.382 70.2748 172.487 70.3798 172.592 70.3798C172.732 70.3798 172.767 70.0648 172.732 69.8548C172.592 69.1548 172.522 67.8598 172.487 67.4748C172.417 67.1248 172.277 66.9148 172.137 66.9148C171.787 66.9148 171.297 66.9848 170.002 66.9848C168.602 66.9848 163.842 67.0548 161.987 67.0548C160.972 67.0548 159.887 66.9148 159.047 66.9148C158.767 66.9148 158.522 67.0198 158.522 67.1248Z" fill="#060602"/>
<path d="M43.3133 103.09C43.3133 103.195 43.4883 103.335 44.0483 103.44C45.0983 103.65 45.7283 104.175 46.8483 105.715C47.8633 107.15 50.7683 112.015 51.9233 114.115C52.0283 114.255 52.1333 114.605 52.1683 114.885C52.2033 115.34 52.2383 115.97 52.2383 118.14C52.2383 119.645 52.1683 121.955 52.0983 122.655C51.9933 124.02 51.7833 124.37 50.3833 124.545C49.9633 124.615 49.6133 124.72 49.6133 124.86C49.6133 125.035 49.8583 125.14 50.3483 125.14C51.3283 125.14 51.9933 125 53.1833 125C54.4783 125 55.1433 125.175 56.5433 125.175C56.8233 125.175 57.1733 125.14 57.1733 124.965C57.1733 124.79 56.9633 124.685 56.4383 124.615C55.2133 124.37 54.9683 123.985 54.8983 122.34C54.8283 121.15 54.8283 120.485 54.8283 119.575C54.8283 117.93 54.8283 115.9 54.8983 114.78C54.9333 114.465 55.1083 113.905 55.3883 113.415C56.4383 111.7 58.8183 107.57 60.6383 105.225C61.3383 104.28 61.9683 103.685 63.2283 103.44C63.7883 103.37 63.9983 103.23 63.9983 103.09C63.9983 102.95 63.7533 102.88 63.3683 102.88C62.8433 102.88 61.7233 103.055 60.8833 103.055C59.9033 103.055 59.3433 102.915 58.3633 102.915C58.0133 102.915 57.8033 102.985 57.8033 103.09C57.8033 103.265 58.1183 103.37 58.3983 103.44C59.3083 103.615 59.6933 103.895 59.6933 104.315C59.6933 104.7 59.4833 105.19 58.8883 106.17C58.1533 107.43 55.9133 111.105 54.7233 113.065C54.6183 113.24 54.3733 113.065 54.3033 113.03C53.4633 111.875 50.3833 106.555 49.7533 105.47C49.3683 104.84 49.1583 104.35 49.1583 104.14C49.1583 103.895 49.3683 103.685 50.2083 103.51C50.5583 103.44 50.7683 103.335 50.7683 103.16C50.7683 103.02 50.5933 102.95 50.2083 102.95C49.6133 102.95 48.4933 103.055 47.3733 103.055C46.3233 103.055 44.6083 102.88 43.9783 102.88C43.5233 102.88 43.3133 102.88 43.3133 103.09Z" fill="#060602"/>
<path d="M66.3745 103.125C66.3745 103.265 66.5495 103.37 66.8995 103.44C68.1595 103.72 68.5795 104.14 68.5795 106.135C68.5795 112.995 68.5795 116.845 68.4045 122.41C68.3695 123.985 67.6695 124.44 66.4795 124.615C66.0945 124.72 65.8495 124.79 65.8495 124.93C65.8495 125.07 66.0595 125.175 66.5145 125.175C66.8995 125.175 68.8595 125 70.0495 125C72.8845 125 76.8395 125.14 80.5495 125.14C80.7945 125.14 80.9695 124.965 81.1095 124.72C81.2845 124.335 81.6695 122.865 81.8795 122.06C82.0195 121.675 81.9845 121.43 81.8445 121.43C81.7045 121.43 81.5645 121.57 81.2145 122.025C80.8645 122.515 80.3045 123.355 79.9545 123.705C79.2545 124.335 78.6245 124.405 75.6845 124.405C73.3395 124.405 72.7795 124.3 72.2195 124.055C71.5895 123.775 71.3095 122.865 71.3095 122.48C71.3095 121.815 71.2045 116.915 71.2045 115.13C71.2045 114.535 71.2395 114.465 71.4845 114.465C76.2095 114.465 77.1545 114.5 77.9595 114.675C78.4845 114.815 78.7295 115.48 78.8345 115.795C79.0795 116.355 79.1145 116.53 79.2545 116.53C79.3245 116.53 79.5695 116.32 79.4645 115.83C79.4295 115.585 79.3245 114.5 79.3945 113.87C79.4645 113.31 79.6045 112.225 79.6045 112.015C79.6045 111.805 79.5345 111.63 79.4295 111.63C79.2895 111.63 79.1845 111.77 79.0795 112.015C78.7295 112.785 78.4145 113.205 78.1695 113.345C77.8545 113.52 77.4345 113.59 75.8245 113.59H71.4145C71.3095 113.59 71.2045 113.45 71.2045 113.03C71.2045 110.615 71.2045 106.17 71.2045 105.015C71.2045 103.755 71.3445 103.685 71.6245 103.65C72.7445 103.615 77.3645 103.615 78.1695 103.755C78.7995 103.895 79.4645 104.42 80.0595 105.89C80.2345 106.275 80.3395 106.38 80.4445 106.38C80.5845 106.38 80.6195 106.065 80.5845 105.855C80.4445 105.155 80.3745 103.86 80.3395 103.475C80.2695 103.125 80.1295 102.915 79.9895 102.915C79.6395 102.915 79.1495 102.985 77.8545 102.985C76.4545 102.985 71.6945 103.055 69.8395 103.055C68.8245 103.055 67.7395 102.915 66.8995 102.915C66.6195 102.915 66.3745 103.02 66.3745 103.125Z" fill="#060602"/>
<path d="M96.2781 102.495C96.1031 102.495 96.0681 102.67 95.9981 102.845C95.8581 103.65 95.1231 104.35 94.7381 104.63C94.6681 104.665 94.6331 104.875 94.6331 105.015C94.6331 105.295 94.5981 105.54 94.4231 105.995C92.3931 111.21 89.3131 118.875 88.2981 121.045C86.9681 123.985 86.6531 124.3 85.0431 124.615C84.6931 124.685 84.3431 124.755 84.3431 124.93C84.3431 125.105 84.5531 125.175 84.9381 125.175C85.7781 125.175 86.4431 125 87.3181 125C88.5781 125 90.0131 125.175 90.6781 125.175C91.0631 125.175 91.3781 125.105 91.3781 124.93C91.3781 124.825 91.2031 124.685 90.8531 124.58C90.1531 124.44 89.6981 124.3 89.3831 123.985C88.9981 123.6 88.9981 122.935 89.3831 121.605C89.8731 119.89 90.8881 117.3 91.2031 116.53C91.3431 116.25 91.5531 115.865 91.7281 115.865C92.4981 115.865 96.9081 115.865 98.2381 115.795C98.3781 115.795 98.5881 115.97 98.6931 116.215C99.8831 119.295 101.073 122.41 101.143 123.005C101.178 123.775 100.968 124.37 99.5681 124.58C99.2181 124.615 98.9031 124.755 98.9031 124.895C98.9031 125.07 99.1131 125.14 99.4981 125.14C100.338 125.14 101.668 125 102.963 125C104.783 125 105.343 125.105 106.008 125.105C106.323 125.105 106.638 125.035 106.638 124.86C106.638 124.755 106.463 124.615 106.043 124.545C105.168 124.335 104.818 124.02 103.943 121.955C101.773 117.02 99.8831 112.26 97.4331 105.75C96.9781 104.56 96.6281 103.615 96.5231 102.845C96.4531 102.635 96.3831 102.495 96.2781 102.495ZM97.9231 114.675C97.5381 114.815 96.1031 114.815 94.8781 114.815C93.6531 114.815 92.7781 114.815 92.1131 114.78C91.9731 114.78 91.9731 114.535 92.0081 114.465C92.4981 113.03 93.9331 109.005 94.7731 107.01C94.8781 106.765 94.9481 106.66 95.0531 106.94C95.5781 108.13 96.5231 110.37 97.9231 114.325C97.9931 114.5 97.9931 114.64 97.9231 114.675Z" fill="#060602"/>
<path d="M116.91 102.845C115.09 102.845 114.145 103.02 112.675 103.02C111.45 103.02 110.435 102.915 109.945 102.915C109.525 102.915 109.315 102.985 109.315 103.125C109.315 103.3 109.595 103.37 109.91 103.44C111.38 103.685 111.415 104.21 111.485 105.19C111.555 106.38 111.695 108.585 111.695 113.45C111.695 117.825 111.625 120.625 111.52 122.62C111.415 124.055 111.065 124.37 109.91 124.615C109.455 124.685 109.245 124.79 109.245 124.93C109.245 125.105 109.49 125.175 109.84 125.175C110.505 125.175 111.765 125 113.025 125C114.32 125 115.37 125.175 116 125.175C116.385 125.175 116.665 125.07 116.665 124.93C116.665 124.79 116.525 124.685 116.14 124.615C114.915 124.405 114.635 124.02 114.53 123.6C114.39 123.285 114.25 122.13 114.25 120.275C114.215 118.945 114.215 114.885 114.285 114.465C114.32 114.29 114.46 114.15 114.6 114.115C115.335 114.08 115.755 114.15 116.07 114.22C116.525 114.29 116.875 114.605 117.33 115.2C118.03 116.285 120.585 120.555 122.125 122.585C123.525 124.405 125.065 125.385 127.27 125.385C127.9 125.385 128.53 125.35 128.845 125.21C129.09 125.14 129.23 125 129.23 124.93C129.23 124.825 129.02 124.72 128.775 124.72C128.11 124.685 127.2 124.44 126.15 123.355C125.415 122.62 124.68 121.71 123.595 120.17C122.475 118.525 120.48 115.27 119.815 113.94C119.675 113.59 119.64 113.38 119.78 113.31C120.305 113.1 121.25 112.715 121.775 112.225C122.58 111.63 123.77 110.58 123.77 108.305C123.77 106.695 123.105 105.19 121.6 104.105C120.445 103.265 119.045 102.845 116.91 102.845ZM115.615 103.44C117.365 103.44 118.59 103.86 119.605 104.84C120.515 105.75 121.005 107.08 121.005 108.865C121.005 110.755 120.025 112.12 119.045 112.82C118.275 113.31 116.245 113.555 115.335 113.59C115.09 113.59 114.67 113.59 114.495 113.52C114.355 113.52 114.215 113.38 114.215 112.925C114.215 112.33 114.25 105.015 114.285 104.35C114.32 103.755 114.425 103.72 114.495 103.685C114.67 103.545 115.16 103.44 115.615 103.44Z" fill="#060602"/>
<path d="M137.065 101.445C136.47 101.445 135.98 101.9 135.98 102.425C135.98 102.845 136.365 103.055 136.715 103.16C137.66 103.37 138.045 103.825 138.045 104.525C138.045 105.575 137.24 106.345 136.155 106.87C135.98 106.975 135.84 107.08 135.84 107.15C135.84 107.255 135.945 107.325 136.19 107.325C136.68 107.325 139.305 106.31 139.305 103.93C139.305 102.635 138.43 101.445 137.065 101.445Z" fill="#060602"/>
<path d="M147.833 103.965C146.678 103.965 145.313 104.525 144.578 105.155C143.703 105.785 142.933 106.73 142.443 107.675C142.268 107.99 142.198 108.34 142.373 108.34C142.478 108.34 142.583 108.27 142.863 107.92C144.053 106.555 145.208 105.925 146.678 105.925C148.813 105.925 150.318 107.675 150.318 110.23C150.318 112.785 149.233 115.235 147.308 117.965C145.733 120.17 143.738 122.725 142.198 124.265C142.023 124.44 141.778 124.755 141.813 124.86C141.848 125 142.163 125.07 142.653 125.07C142.968 125.07 145.383 125 146.223 125C147.658 125 153.048 125.14 153.643 125.14C153.853 125.14 154.098 125.07 154.168 124.72C154.238 124.475 154.833 122.69 155.218 121.885C155.393 121.535 155.393 121.15 155.253 121.15C155.183 121.15 155.008 121.255 154.833 121.605C154.203 122.62 153.748 122.69 153.153 122.795C152.943 122.795 151.578 122.865 150.248 122.865C146.888 122.865 145.383 122.83 144.788 122.655C144.648 122.62 144.578 122.48 144.648 122.34C146.083 120.625 148.498 117.755 150.283 115.27C151.998 112.96 152.768 110.965 152.768 109.075C152.768 106.52 151.053 103.965 147.833 103.965Z" fill="#060602"/>
<path d="M169.673 102.425C167.398 102.425 164.668 103.23 162.883 104.63C159.523 107.185 158.333 110.3 158.333 113.8C158.333 120.205 163.513 125.63 169.848 125.63C171.458 125.63 173.068 125.21 174.503 124.58C177.198 123.39 181.013 119.925 181.013 114.29C181.013 107.745 175.763 102.425 169.673 102.425ZM169.078 102.95C171.878 102.95 173.768 104.315 175.028 105.82C176.988 108.235 178.003 111.245 178.003 114.29C178.003 119.225 175.833 122.27 174.188 123.565C173.033 124.58 171.703 124.965 170.443 124.965C168.483 124.965 166.103 124.16 164.038 121.43C162.393 119.365 161.343 116.355 161.343 113.66C161.343 110.825 162.078 107.675 163.828 105.575C164.913 104.315 167.083 102.95 169.078 102.95Z" fill="#060602"/>
</svg>
