<svg width="121" height="120" viewBox="0 0 121 120" fill="none" xmlns="http://www.w3.org/2000/svg">
<path d="M22.5837 45.7216C23.5298 43.2157 22.6657 40.8864 19.5292 39.6715L18.1202 43.4038L18.9182 43.7013L19.9649 40.9287C21.7878 41.6995 22.4497 43.5429 21.7451 45.409C20.945 47.5284 18.5271 48.4973 16.3629 47.6905C14.1988 46.8838 12.9783 44.5585 13.7784 42.4391C14.1156 41.546 14.7607 40.8589 15.5162 40.4107L15.129 39.5973C14.1693 40.1367 13.3676 40.9934 12.9398 42.1264C11.9585 44.7257 13.3797 47.582 16.0308 48.5703C18.6683 49.5536 21.6024 48.3209 22.5837 45.7216Z" fill="#060602"/>
<path d="M22.964 34.8505L25.3904 31.5664L24.6666 31.043L22.2402 34.3272L19.2281 32.1495L22.0108 28.383L21.287 27.8597L17.9529 32.3725L25.9967 38.1882L29.4241 33.549L28.7003 33.0257L25.8243 36.9184L22.964 34.8505Z" fill="#060602"/>
<path d="M24.7685 23.9135L25.3497 24.5885L27.7529 22.5744L33.6298 29.4005L34.354 28.7935L28.4771 21.9674L30.8913 19.9441L30.3102 19.2691L24.7685 23.9135Z" fill="#060602"/>
<path d="M45.2962 22.1999L41.4472 13.1255L40.5689 13.4849L44.4179 22.5592L45.2962 22.1999Z" fill="#060602"/>
<path d="M55.2299 17.7994L48.6761 10.6958L47.6983 10.8767L49.5811 20.5283L50.5164 20.3553L48.9478 12.3146L55.5186 19.4296L56.4822 19.2513L54.5994 9.59971L53.6641 9.77277L55.2299 17.7994Z" fill="#060602"/>
<path d="M63.7627 19.3922C65.9219 19.5558 67.1813 18.1511 67.2809 16.7727C67.3835 15.3518 66.3623 14.46 64.821 13.9574L63.4925 13.5138C62.0498 13.0473 61.9613 12.2691 61.9941 11.8144C62.0731 10.7202 63.1784 10.0468 64.3012 10.1319C65.4816 10.2213 66.3526 10.9874 66.3322 12.0717L67.2679 12.1426C67.3283 10.5042 66.0778 9.3807 64.3936 9.25306C62.7526 9.12869 61.161 10.1225 61.044 11.7424C60.9876 12.5239 61.1903 13.7251 63.2139 14.3643L64.5301 14.7783C65.4915 15.0941 66.4047 15.6776 66.3277 16.7434C66.261 17.667 65.4098 18.6312 63.8263 18.5112C62.43 18.4053 61.5898 17.413 61.5732 16.4402L60.6375 16.3693C60.6069 17.7957 61.8049 19.2438 63.7627 19.3922Z" fill="#060602"/>
<path d="M74.2627 10.9362L71.1194 20.2349L72.023 20.5371L73.2503 16.9067L76.016 17.8316C77.9875 18.491 79.2242 17.3574 79.7123 15.9133C80.1959 14.4828 79.9037 12.8228 77.9732 12.1771L74.2627 10.9362ZM73.5331 16.0699L74.8835 12.0752L77.6766 13.0093C78.9773 13.4443 79.1463 14.6124 78.8087 15.6111C78.4665 16.6233 77.6132 17.4345 76.2577 16.9812L73.5331 16.0699Z" fill="#060602"/>
<path d="M81.683 24.5836L86.589 16.0694L85.7605 15.6008L80.8545 24.1151L81.683 24.5836Z" fill="#060602"/>
<path d="M91.0484 26.54C92.5212 27.8073 94.1554 27.2152 95.1379 26.1C96.1392 24.9634 96.5216 23.3319 94.9506 21.9801L92.1576 19.5769L85.6487 26.9649L86.3688 27.5845L88.9195 24.6893L90.1741 25.7689L89.6855 30.4383L90.5583 31.1893L91.0266 26.5212L91.0484 26.54ZM94.3758 22.6543C95.3359 23.4804 95.1924 24.6012 94.4178 25.4804C93.6432 26.3597 92.5723 26.6825 91.3941 25.6687L89.4957 24.0352L92.292 20.8613L94.3758 22.6543Z" fill="#060602"/>
<path d="M97.4796 32.4895L99.8519 35.8377L100.584 35.3338L98.2118 31.9856L101.259 29.8888L103.979 33.7286L104.712 33.2247L101.452 28.6239L93.3148 34.2236L96.6659 38.9532L97.3981 38.4493L94.5862 34.4807L97.4796 32.4895Z" fill="#060602"/>
<path d="M108.132 39.3255L98.7659 42.5723L100.031 46.0827C100.976 48.7054 103.535 49.5278 106.186 48.6089C108.85 47.6853 110.342 45.4587 109.397 42.8359L108.132 39.3255ZM99.9285 43.1678L107.609 40.5054L108.554 43.1281C109.315 45.2397 108.041 46.9673 105.866 47.7213C103.705 48.4705 101.634 47.9022 100.873 45.7905L99.9285 43.1678Z" fill="#060602"/>
<path d="M99.3911 74.2784C98.445 76.7843 99.3092 79.1136 102.446 80.3285L103.855 76.5962L103.057 76.2987L102.01 79.0713C100.187 78.3005 99.5252 76.4571 100.23 74.591C101.03 72.4716 103.448 71.5027 105.612 72.3095C107.776 73.1162 108.997 75.4415 108.196 77.5609C107.859 78.454 107.214 79.1411 106.459 79.5893L106.846 80.4027C107.806 79.8633 108.607 79.0066 109.035 77.8736C110.016 75.2743 108.595 72.418 105.944 71.4297C103.307 70.4464 100.372 71.6791 99.3911 74.2784Z" fill="#060602"/>
<path d="M99.0108 85.1495L96.5844 88.4336L97.3083 88.957L99.7347 85.6728L102.747 87.8505L99.964 91.6169L100.688 92.1403L104.022 87.6275L95.9782 81.8118L92.5507 86.4509L93.2745 86.9743L96.1505 83.0815L99.0108 85.1495Z" fill="#060602"/>
<path d="M97.2063 96.0865L96.6252 95.4115L94.222 97.4256L88.3451 90.5995L87.6208 91.2065L93.4977 98.0326L91.0835 100.056L91.6647 100.731L97.2063 96.0865Z" fill="#060602"/>
<path d="M76.6787 97.8001L80.5277 106.874L81.4059 106.515L77.5569 97.4408L76.6787 97.8001Z" fill="#060602"/>
<path d="M66.7449 102.201L73.2988 109.304L74.2765 109.123L72.3937 99.4717L71.4585 99.6447L73.027 107.685L66.4562 100.57L65.4926 100.749L67.3755 110.4L68.3107 110.227L66.7449 102.201Z" fill="#060602"/>
<path d="M58.2122 100.608C56.0529 100.444 54.7935 101.849 54.694 103.227C54.5914 104.648 55.6125 105.54 57.1539 106.043L58.4824 106.486C59.925 106.953 60.0135 107.731 59.9807 108.186C59.9017 109.28 58.7965 109.953 57.6736 109.868C56.4932 109.779 55.6222 109.013 55.6427 107.928L54.707 107.857C54.6465 109.496 55.897 110.619 57.5812 110.747C59.2223 110.871 60.8138 109.878 60.9308 108.258C60.9872 107.476 60.7845 106.275 58.7609 105.636L57.4447 105.222C56.4833 104.906 55.5702 104.322 55.6471 103.257C55.7138 102.333 56.5651 101.369 58.1485 101.489C59.5448 101.595 60.385 102.587 60.4016 103.56L61.3373 103.631C61.368 102.204 60.1699 100.756 58.2122 100.608Z" fill="#060602"/>
<path d="M47.7121 109.064L50.8554 99.7651L49.9518 99.4629L48.7246 103.093L45.9589 102.168C43.9873 101.509 42.7507 102.643 42.2625 104.087C41.7789 105.517 42.0712 107.177 44.0017 107.823L47.7121 109.064ZM48.4417 103.93L47.0913 107.925L44.2982 106.991C42.9975 106.556 42.8285 105.388 43.1662 104.389C43.5083 103.377 44.3616 102.566 45.7171 103.019L48.4417 103.93Z" fill="#060602"/>
<path d="M40.2919 95.4163L35.3859 103.931L36.2144 104.399L41.1203 95.8849L40.2919 95.4163Z" fill="#060602"/>
<path d="M30.9264 93.46C29.4536 92.1927 27.8194 92.7848 26.837 93.9C25.8356 95.0366 25.4532 96.6681 27.0242 98.0199L29.8172 100.423L36.3261 93.0351L35.606 92.4155L33.0554 95.3107L31.8007 94.2311L32.2894 89.5617L31.4166 88.8107L30.9483 93.4788L30.9264 93.46ZM27.599 97.3457C26.6389 96.5196 26.7824 95.3988 27.557 94.5196C28.3317 93.6403 29.4025 93.3175 30.5808 94.3313L32.4791 95.9648L29.6829 99.1387L27.599 97.3457Z" fill="#060602"/>
<path d="M24.4952 87.5105L22.123 84.1623L21.3908 84.6662L23.763 88.0144L20.7161 90.1112L17.9954 86.2714L17.2632 86.7752L20.523 91.3761L28.66 85.7764L25.309 81.0468L24.5768 81.5507L27.3886 85.5193L24.4952 87.5105Z" fill="#060602"/>
<path d="M13.843 80.6745L23.209 77.4277L21.9441 73.9173C20.9991 71.2946 18.4397 70.4722 15.7889 71.3911C13.1246 72.3147 11.6331 74.5413 12.5781 77.164L13.843 80.6745ZM22.0463 76.8322L14.3659 79.4946L13.4209 76.8719C12.6601 74.7603 13.9338 73.0327 16.1088 72.2787C18.2702 71.5295 20.3405 72.0978 21.1013 74.2094L22.0463 76.8322Z" fill="#060602"/>
<path d="M22.5837 45.7216C23.5298 43.2157 22.6657 40.8864 19.5292 39.6715L18.1202 43.4038L18.9182 43.7013L19.9649 40.9287C21.7878 41.6995 22.4497 43.5429 21.7451 45.409C20.945 47.5284 18.5271 48.4973 16.3629 47.6905C14.1988 46.8838 12.9783 44.5585 13.7784 42.4391C14.1156 41.546 14.7607 40.8589 15.5162 40.4107L15.129 39.5973C14.1693 40.1367 13.3676 40.9934 12.9398 42.1264C11.9585 44.7257 13.3797 47.582 16.0308 48.5703C18.6683 49.5536 21.6024 48.3209 22.5837 45.7216Z" stroke="#060602" stroke-width="0.390296"/>
<path d="M22.964 34.8505L25.3904 31.5664L24.6666 31.043L22.2402 34.3272L19.2281 32.1495L22.0108 28.383L21.287 27.8597L17.9529 32.3725L25.9967 38.1882L29.4241 33.549L28.7003 33.0257L25.8243 36.9184L22.964 34.8505Z" stroke="#060602" stroke-width="0.390296"/>
<path d="M24.7685 23.9135L25.3497 24.5885L27.7529 22.5744L33.6298 29.4005L34.354 28.7935L28.4771 21.9674L30.8913 19.9441L30.3102 19.2691L24.7685 23.9135Z" stroke="#060602" stroke-width="0.390296"/>
<path d="M45.2962 22.1999L41.4472 13.1255L40.5689 13.4849L44.4179 22.5592L45.2962 22.1999Z" stroke="#060602" stroke-width="0.390296"/>
<path d="M55.2299 17.7994L48.6761 10.6958L47.6983 10.8767L49.5811 20.5283L50.5164 20.3553L48.9478 12.3146L55.5186 19.4296L56.4822 19.2513L54.5994 9.59971L53.6641 9.77277L55.2299 17.7994Z" stroke="#060602" stroke-width="0.390296"/>
<path d="M63.7627 19.3922C65.9219 19.5558 67.1813 18.1511 67.2809 16.7727C67.3835 15.3518 66.3623 14.46 64.821 13.9574L63.4925 13.5138C62.0498 13.0473 61.9613 12.2691 61.9941 11.8144C62.0731 10.7202 63.1784 10.0468 64.3012 10.1319C65.4816 10.2213 66.3526 10.9874 66.3322 12.0717L67.2679 12.1426C67.3283 10.5042 66.0778 9.3807 64.3936 9.25306C62.7526 9.12869 61.161 10.1225 61.044 11.7424C60.9876 12.5239 61.1903 13.7251 63.2139 14.3643L64.5301 14.7783C65.4915 15.0941 66.4047 15.6776 66.3277 16.7434C66.261 17.667 65.4098 18.6312 63.8263 18.5112C62.43 18.4053 61.5898 17.413 61.5732 16.4402L60.6375 16.3693C60.6069 17.7957 61.8049 19.2438 63.7627 19.3922Z" stroke="#060602" stroke-width="0.390296"/>
<path d="M74.2627 10.9362L71.1194 20.2349L72.023 20.5371L73.2503 16.9067L76.016 17.8316C77.9875 18.491 79.2242 17.3574 79.7123 15.9133C80.1959 14.4828 79.9037 12.8228 77.9732 12.1771L74.2627 10.9362ZM73.5331 16.0699L74.8835 12.0752L77.6766 13.0093C78.9773 13.4443 79.1463 14.6124 78.8087 15.6111C78.4665 16.6233 77.6132 17.4345 76.2577 16.9812L73.5331 16.0699Z" stroke="#060602" stroke-width="0.390296"/>
<path d="M81.683 24.5836L86.589 16.0694L85.7605 15.6008L80.8545 24.1151L81.683 24.5836Z" stroke="#060602" stroke-width="0.390296"/>
<path d="M91.0484 26.54C92.5212 27.8073 94.1554 27.2152 95.1379 26.1C96.1392 24.9634 96.5216 23.3319 94.9506 21.9801L92.1576 19.5769L85.6487 26.9649L86.3688 27.5845L88.9195 24.6893L90.1741 25.7689L89.6855 30.4383L90.5583 31.1893L91.0266 26.5212L91.0484 26.54ZM94.3758 22.6543C95.3359 23.4804 95.1924 24.6012 94.4178 25.4804C93.6432 26.3597 92.5723 26.6825 91.3941 25.6687L89.4957 24.0352L92.292 20.8613L94.3758 22.6543Z" stroke="#060602" stroke-width="0.390296"/>
<path d="M97.4796 32.4895L99.8519 35.8377L100.584 35.3338L98.2118 31.9856L101.259 29.8888L103.979 33.7286L104.712 33.2247L101.452 28.6239L93.3148 34.2236L96.6659 38.9532L97.3981 38.4493L94.5862 34.4807L97.4796 32.4895Z" stroke="#060602" stroke-width="0.390296"/>
<path d="M108.132 39.3255L98.7659 42.5723L100.031 46.0827C100.976 48.7054 103.535 49.5278 106.186 48.6089C108.85 47.6853 110.342 45.4587 109.397 42.8359L108.132 39.3255ZM99.9285 43.1678L107.609 40.5054L108.554 43.1281C109.315 45.2397 108.041 46.9673 105.866 47.7213C103.705 48.4705 101.634 47.9022 100.873 45.7905L99.9285 43.1678Z" stroke="#060602" stroke-width="0.390296"/>
<path d="M99.3911 74.2784C98.445 76.7843 99.3092 79.1136 102.446 80.3285L103.855 76.5962L103.057 76.2987L102.01 79.0713C100.187 78.3005 99.5252 76.4571 100.23 74.591C101.03 72.4716 103.448 71.5027 105.612 72.3095C107.776 73.1162 108.997 75.4415 108.196 77.5609C107.859 78.454 107.214 79.1411 106.459 79.5893L106.846 80.4027C107.806 79.8633 108.607 79.0066 109.035 77.8736C110.016 75.2743 108.595 72.418 105.944 71.4297C103.307 70.4464 100.372 71.6791 99.3911 74.2784Z" stroke="#060602" stroke-width="0.390296"/>
<path d="M99.0108 85.1495L96.5844 88.4336L97.3083 88.957L99.7347 85.6728L102.747 87.8505L99.964 91.6169L100.688 92.1403L104.022 87.6275L95.9782 81.8118L92.5507 86.4509L93.2745 86.9743L96.1505 83.0815L99.0108 85.1495Z" stroke="#060602" stroke-width="0.390296"/>
<path d="M97.2063 96.0865L96.6252 95.4115L94.222 97.4256L88.3451 90.5995L87.6208 91.2065L93.4977 98.0326L91.0835 100.056L91.6647 100.731L97.2063 96.0865Z" stroke="#060602" stroke-width="0.390296"/>
<path d="M76.6787 97.8001L80.5277 106.874L81.4059 106.515L77.5569 97.4408L76.6787 97.8001Z" stroke="#060602" stroke-width="0.390296"/>
<path d="M66.7449 102.201L73.2988 109.304L74.2765 109.123L72.3937 99.4717L71.4585 99.6447L73.027 107.685L66.4562 100.57L65.4926 100.749L67.3755 110.4L68.3107 110.227L66.7449 102.201Z" stroke="#060602" stroke-width="0.390296"/>
<path d="M58.2122 100.608C56.0529 100.444 54.7935 101.849 54.694 103.227C54.5914 104.648 55.6125 105.54 57.1539 106.043L58.4824 106.486C59.925 106.953 60.0135 107.731 59.9807 108.186C59.9017 109.28 58.7965 109.953 57.6736 109.868C56.4932 109.779 55.6222 109.013 55.6427 107.928L54.707 107.857C54.6465 109.496 55.897 110.619 57.5812 110.747C59.2223 110.871 60.8138 109.878 60.9308 108.258C60.9872 107.476 60.7845 106.275 58.7609 105.636L57.4447 105.222C56.4833 104.906 55.5702 104.322 55.6471 103.257C55.7138 102.333 56.5651 101.369 58.1485 101.489C59.5448 101.595 60.385 102.587 60.4016 103.56L61.3373 103.631C61.368 102.204 60.1699 100.756 58.2122 100.608Z" stroke="#060602" stroke-width="0.390296"/>
<path d="M47.7121 109.064L50.8554 99.7651L49.9518 99.4629L48.7246 103.093L45.9589 102.168C43.9873 101.509 42.7507 102.643 42.2625 104.087C41.7789 105.517 42.0712 107.177 44.0017 107.823L47.7121 109.064ZM48.4417 103.93L47.0913 107.925L44.2982 106.991C42.9975 106.556 42.8285 105.388 43.1662 104.389C43.5083 103.377 44.3616 102.566 45.7171 103.019L48.4417 103.93Z" stroke="#060602" stroke-width="0.390296"/>
<path d="M40.2919 95.4163L35.3859 103.931L36.2144 104.399L41.1203 95.8849L40.2919 95.4163Z" stroke="#060602" stroke-width="0.390296"/>
<path d="M30.9264 93.46C29.4536 92.1927 27.8194 92.7848 26.837 93.9C25.8356 95.0366 25.4532 96.6681 27.0242 98.0199L29.8172 100.423L36.3261 93.0351L35.606 92.4155L33.0554 95.3107L31.8007 94.2311L32.2894 89.5617L31.4166 88.8107L30.9483 93.4788L30.9264 93.46ZM27.599 97.3457C26.6389 96.5196 26.7824 95.3988 27.557 94.5196C28.3317 93.6403 29.4025 93.3175 30.5808 94.3313L32.4791 95.9648L29.6829 99.1387L27.599 97.3457Z" stroke="#060602" stroke-width="0.390296"/>
<path d="M24.4952 87.5105L22.123 84.1623L21.3908 84.6662L23.763 88.0144L20.7161 90.1112L17.9954 86.2714L17.2632 86.7752L20.523 91.3761L28.66 85.7764L25.309 81.0468L24.5768 81.5507L27.3886 85.5193L24.4952 87.5105Z" stroke="#060602" stroke-width="0.390296"/>
<path d="M13.843 80.6745L23.209 77.4277L21.9441 73.9173C20.9991 71.2946 18.4397 70.4722 15.7889 71.3911C13.1246 72.3147 11.6331 74.5413 12.5781 77.164L13.843 80.6745ZM22.0463 76.8322L14.3659 79.4946L13.4209 76.8719C12.6601 74.7603 13.9338 73.0327 16.1088 72.2787C18.2702 71.5295 20.3405 72.0978 21.1013 74.2094L22.0463 76.8322Z" stroke="#060602" stroke-width="0.390296"/>
</svg>
